<svg t="1744205157214" class="icon" viewBox="0 0 1024 1024" version="1.1" xmlns="http://www.w3.org/2000/svg" p-id="3256" width="28" height="28"><path d="M512 128a64 64 0 0 1 64 64v640a64 64 0 0 1-128 0V192a64 64 0 0 1 64-64z m440.512 172.16a31.36 31.36 0 0 1 7.488 20.224v383.232a33.28 33.28 0 0 1-34.048 32.384 35.2 35.2 0 0 1-21.248-7.04L652.8 537.216a31.36 31.36 0 0 1 0-50.56l251.904-191.616a35.2 35.2 0 0 1 47.808 5.056zM119.296 295.04L371.2 486.784a31.36 31.36 0 0 1 0 50.56l-251.904 191.616a35.2 35.2 0 0 1-21.248 7.104 33.28 33.28 0 0 1-34.048-32.384V320.384a31.36 31.36 0 0 1 7.488-20.224 35.2 35.2 0 0 1 47.808-5.12z" fill="#ffffff" p-id="3257"></path></svg>